<svg width="559" height="1575" viewBox="0 0 559 1575" fill="none" xmlns="http://www.w3.org/2000/svg">
<rect width="558" height="1575" fill="white"/>
<line x1="-0.00415039" y1="37.0164" x2="558.004" y2="37.0164" stroke="#C9D6DF"/>
<line y1="71.5" x2="558.008" y2="71.5" stroke="#C9D6DF"/>
<line y1="107.5" x2="558.008" y2="107.5" stroke="#C9D6DF"/>
<line y1="143.5" x2="558.008" y2="143.5" stroke="#C9D6DF"/>
<line y1="179.5" x2="558.008" y2="179.5" stroke="#C9D6DF"/>
<line x1="0.00415039" y1="213.984" x2="558.012" y2="213.984" stroke="#C9D6DF"/>
<line x1="0.00415039" y1="249.984" x2="558.012" y2="249.984" stroke="#C9D6DF"/>
<line x1="0.00415039" y1="285.984" x2="558.012" y2="285.984" stroke="#C9D6DF"/>
<line y1="321.5" x2="558.008" y2="321.5" stroke="#C9D6DF"/>
<line x1="0.00415039" y1="355.984" x2="558.012" y2="355.984" stroke="#C9D6DF"/>
<line x1="0.00415039" y1="391.984" x2="558.012" y2="391.984" stroke="#C9D6DF"/>
<line x1="0.00415039" y1="427.984" x2="558.012" y2="427.984" stroke="#C9D6DF"/>
<line y1="463.5" x2="558.008" y2="463.5" stroke="#C9D6DF"/>
<line x1="0.00415039" y1="497.984" x2="558.012" y2="497.984" stroke="#C9D6DF"/>
<line x1="0.00415039" y1="533.984" x2="558.012" y2="533.984" stroke="#C9D6DF"/>
<line x1="0.00415039" y1="569.984" x2="558.012" y2="569.984" stroke="#C9D6DF"/>
<line y1="605.5" x2="558.008" y2="605.5" stroke="#C9D6DF"/>
<line x1="0.00415039" y1="639.984" x2="558.012" y2="639.984" stroke="#C9D6DF"/>
<line x1="0.00415039" y1="675.984" x2="558.012" y2="675.984" stroke="#C9D6DF"/>
<line x1="0.00415039" y1="711.984" x2="558.012" y2="711.984" stroke="#C9D6DF"/>
<line y1="747.5" x2="558.008" y2="747.5" stroke="#C9D6DF"/>
<line x1="0.00415039" y1="781.984" x2="558.012" y2="781.984" stroke="#C9D6DF"/>
<line x1="0.00415039" y1="817.984" x2="558.012" y2="817.984" stroke="#C9D6DF"/>
<line x1="0.00415039" y1="853.984" x2="558.012" y2="853.984" stroke="#C9D6DF"/>
<line y1="889.5" x2="558.008" y2="889.5" stroke="#C9D6DF"/>
<line x1="0.00415039" y1="923.984" x2="558.012" y2="923.984" stroke="#C9D6DF"/>
<line x1="0.00415039" y1="959.984" x2="558.012" y2="959.984" stroke="#C9D6DF"/>
<line x1="0.00415039" y1="995.984" x2="558.012" y2="995.984" stroke="#C9D6DF"/>
<line y1="1030.5" x2="558.008" y2="1030.5" stroke="#C9D6DF"/>
<line x1="0.00415039" y1="1064.98" x2="558.012" y2="1064.98" stroke="#C9D6DF"/>
<line x1="0.00415039" y1="1100.98" x2="558.012" y2="1100.98" stroke="#C9D6DF"/>
<line x1="0.00415039" y1="1136.98" x2="558.012" y2="1136.98" stroke="#C9D6DF"/>
<line y1="1171.5" x2="558.008" y2="1171.5" stroke="#C9D6DF"/>
<line x1="0.00415039" y1="1205.98" x2="558.012" y2="1205.98" stroke="#C9D6DF"/>
<line x1="0.00415039" y1="1241.98" x2="558.012" y2="1241.98" stroke="#C9D6DF"/>
<line x1="0.00415039" y1="1277.98" x2="558.012" y2="1277.98" stroke="#C9D6DF"/>
<line y1="1312.5" x2="558.008" y2="1312.5" stroke="#C9D6DF"/>
<line x1="0.00415039" y1="1346.98" x2="558.012" y2="1346.98" stroke="#C9D6DF"/>
<line x1="0.00415039" y1="1382.98" x2="558.012" y2="1382.98" stroke="#C9D6DF"/>
<line x1="0.00415039" y1="1418.98" x2="558.012" y2="1418.98" stroke="#C9D6DF"/>
<line y1="1453.5" x2="558.008" y2="1453.5" stroke="#C9D6DF"/>
<line x1="0.00415039" y1="1487.98" x2="558.012" y2="1487.98" stroke="#C9D6DF"/>
<line x1="0.00415039" y1="1523.98" x2="558.012" y2="1523.98" stroke="#C9D6DF"/>
<line x1="0.00415039" y1="1559.98" x2="558.012" y2="1559.98" stroke="#C9D6DF"/>
</svg>
