<svg width="289" height="141" viewBox="0 0 289 141" fill="none" xmlns="http://www.w3.org/2000/svg">
<path d="M0 6H280V141L266 139L255 134L245 136.5L236.5 131.5L228 136.5L216.5 131.5L208 136.5L197 131.5L190.5 139L181.5 134L179 139L165.5 134L150.5 139L139.5 134L131.5 141L124.5 136.5L117 141L114.5 136.5L104 141L98 136.5L91.5 139L85 136.5L78 139L67 136.5L59 139L50.5 136.5L44 141L37.5 136.5L30 141L16.5 136.5L0 141V6Z" fill="#D9D9D9"/>
<path d="M22.59 26.595H23.835V40.185H22.59V26.595ZM16.68 27.645C18.69 27.645 20.13 29.49 20.13 32.37C20.13 35.265 18.69 37.11 16.68 37.11C14.685 37.11 13.245 35.265 13.245 32.37C13.245 29.49 14.685 27.645 16.68 27.645ZM16.68 28.77C15.36 28.77 14.43 30.18 14.43 32.37C14.43 34.575 15.36 36.015 16.68 36.015C18.015 36.015 18.93 34.575 18.93 32.37C18.93 30.18 18.015 28.77 16.68 28.77ZM26.5338 33.6H38.8338V34.62H26.5338V33.6ZM28.0938 26.94H37.2438V30.15H29.3538V31.95H28.1238V29.235H36.0288V27.915H28.0938V26.94ZM28.1238 31.47H37.5438V32.445H28.1238V31.47ZM28.1838 35.85H37.2588V39.99H28.1838V35.85ZM36.0438 36.84H29.3988V38.985H36.0438V36.84ZM41.6644 39.0852C41.4016 39.0852 41.1761 38.9911 40.9879 38.8029C40.7997 38.6147 40.7056 38.3892 40.7056 38.1264C40.7056 37.8636 40.7997 37.6381 40.9879 37.4499C41.1761 37.2617 41.4016 37.1676 41.6644 37.1676C41.9272 37.1676 42.1527 37.2617 42.3409 37.4499C42.5291 37.6381 42.6232 37.8636 42.6232 38.1264C42.6232 38.3004 42.5788 38.4602 42.4901 38.6058C42.4048 38.7514 42.2894 38.8686 42.1438 38.9574C42.0018 39.0426 41.842 39.0852 41.6644 39.0852ZM41.6644 33.0128C41.4016 33.0128 41.1761 32.9187 40.9879 32.7305C40.7997 32.5423 40.7056 32.3168 40.7056 32.054C40.7056 31.7912 40.7997 31.5657 40.9879 31.3775C41.1761 31.1893 41.4016 31.0952 41.6644 31.0952C41.9272 31.0952 42.1527 31.1893 42.3409 31.3775C42.5291 31.5657 42.6232 31.7912 42.6232 32.054C42.6232 32.228 42.5788 32.3878 42.4901 32.5334C42.4048 32.679 42.2894 32.7962 42.1438 32.8849C42.0018 32.9702 41.842 33.0128 41.6644 33.0128ZM58.5373 26.595H59.7823V40.185H58.5373V26.595ZM52.6273 27.645C54.6373 27.645 56.0773 29.49 56.0773 32.37C56.0773 35.265 54.6373 37.11 52.6273 37.11C50.6323 37.11 49.1923 35.265 49.1923 32.37C49.1923 29.49 50.6323 27.645 52.6273 27.645ZM52.6273 28.77C51.3073 28.77 50.3773 30.18 50.3773 32.37C50.3773 34.575 51.3073 36.015 52.6273 36.015C53.9623 36.015 54.8773 34.575 54.8773 32.37C54.8773 30.18 53.9623 28.77 52.6273 28.77ZM72.5761 32.01H75.0811V33.06H72.5761V32.01ZM71.6611 26.595H72.9211V40.17H71.6611V26.595ZM63.0211 27.93H64.2661V36.33H63.0211V27.93ZM63.0211 35.685H64.1011C66.1111 35.685 68.1661 35.55 70.4011 35.085L70.5511 36.12C68.2411 36.6 66.1561 36.735 64.1011 36.735H63.0211V35.685ZM82.4599 28.56H86.5999V29.58H82.4599V28.56ZM82.4599 31.68H86.5999V32.715H82.4599V31.68ZM79.9849 27.405C81.9799 27.405 83.4799 28.755 83.4799 30.63C83.4799 32.52 81.9799 33.855 79.9849 33.855C77.9749 33.855 76.4899 32.52 76.4899 30.63C76.4899 28.755 77.9749 27.405 79.9849 27.405ZM79.9849 28.47C78.6649 28.47 77.6899 29.355 77.6899 30.63C77.6899 31.905 78.6649 32.79 79.9849 32.79C81.3049 32.79 82.2949 31.905 82.2949 30.63C82.2949 29.355 81.3049 28.47 79.9849 28.47ZM86.1949 26.61H87.4399V34.635H86.1949V26.61ZM82.9849 34.95C85.7749 34.95 87.4999 35.91 87.4999 37.545C87.4999 39.195 85.7749 40.14 82.9849 40.14C80.1799 40.14 78.4549 39.195 78.4549 37.545C78.4549 35.91 80.1799 34.95 82.9849 34.95ZM82.9849 35.94C80.9299 35.94 79.6849 36.54 79.6849 37.545C79.6849 38.565 80.9299 39.165 82.9849 39.165C85.0249 39.165 86.2699 38.565 86.2699 37.545C86.2699 36.54 85.0249 35.94 82.9849 35.94ZM19.935 48.345H23.355V49.365H19.935V48.345ZM22.65 44.625H23.895V54.555H22.65V44.625ZM15.24 56.85H24.27V57.87H15.24V56.85ZM15.24 53.685H16.485V57.375H15.24V53.685ZM16.2 46.305H17.22V47.4C17.22 49.86 15.69 51.99 13.425 52.83L12.78 51.84C14.805 51.12 16.2 49.32 16.2 47.4V46.305ZM16.44 46.305H17.445V47.385C17.445 49.14 18.765 50.85 20.73 51.54L20.1 52.515C17.895 51.72 16.44 49.68 16.44 47.385V46.305ZM13.17 45.72H20.415V46.725H13.17V45.72ZM32.6238 53.16C35.5038 53.16 37.3488 54.105 37.3488 55.665C37.3488 57.21 35.5038 58.14 32.6238 58.14C29.7288 58.14 27.8988 57.21 27.8988 55.665C27.8988 54.105 29.7288 53.16 32.6238 53.16ZM32.6238 54.135C30.4938 54.135 29.1288 54.72 29.1288 55.665C29.1288 56.595 30.4938 57.18 32.6238 57.18C34.7538 57.18 36.1038 56.595 36.1038 55.665C36.1038 54.72 34.7538 54.135 32.6238 54.135ZM28.0038 45.285H36.7338V46.305H28.0038V45.285ZM26.5488 50.925H38.7888V51.93H26.5488V50.925ZM31.5738 48.315H32.8038V51.21H31.5738V48.315ZM36.0138 45.285H37.2288V46.44C37.2288 47.535 37.2288 48.63 36.8688 50.04L35.6388 49.89C36.0138 48.495 36.0138 47.505 36.0138 46.44V45.285ZM41.6644 57.0852C41.4016 57.0852 41.1761 56.9911 40.9879 56.8029C40.7997 56.6147 40.7056 56.3892 40.7056 56.1264C40.7056 55.8636 40.7997 55.6381 40.9879 55.4499C41.1761 55.2617 41.4016 55.1676 41.6644 55.1676C41.9272 55.1676 42.1527 55.2617 42.3409 55.4499C42.5291 55.6381 42.6232 55.8636 42.6232 56.1264C42.6232 56.3004 42.5788 56.4602 42.4901 56.6058C42.4048 56.7514 42.2894 56.8686 42.1438 56.9574C42.0018 57.0426 41.842 57.0852 41.6644 57.0852ZM41.6644 51.0128C41.4016 51.0128 41.1761 50.9187 40.9879 50.7305C40.7997 50.5423 40.7056 50.3168 40.7056 50.054C40.7056 49.7912 40.7997 49.5657 40.9879 49.3775C41.1761 49.1893 41.4016 49.0952 41.6644 49.0952C41.9272 49.0952 42.1527 49.1893 42.3409 49.3775C42.5291 49.5657 42.6232 49.7912 42.6232 50.054C42.6232 50.228 42.5788 50.3878 42.4901 50.5334C42.4048 50.679 42.2894 50.7962 42.1438 50.8849C42.0018 50.9702 41.842 51.0128 41.6644 51.0128ZM48.6973 51.375H60.9523V52.365H48.6973V51.375ZM54.2023 49.035H55.4323V51.765H54.2023V49.035ZM50.0473 53.685H59.4523V58.275H58.2073V54.705H50.0473V53.685ZM50.2423 48.735H59.5423V49.755H50.2423V48.735ZM50.2423 45.15H59.4223V46.17H51.4873V49.26H50.2423V45.15ZM66.2911 45.105C68.3161 45.105 69.8011 46.335 69.8011 48.12C69.8011 49.89 68.3161 51.12 66.2911 51.12C64.2811 51.12 62.7961 49.89 62.7961 48.12C62.7961 46.335 64.2811 45.105 66.2911 45.105ZM66.2911 46.125C64.9861 46.125 63.9961 46.95 63.9961 48.12C63.9961 49.29 64.9861 50.1 66.2911 50.1C67.6111 50.1 68.5861 49.29 68.5861 48.12C68.5861 46.95 67.6111 46.125 66.2911 46.125ZM72.3511 44.61H73.6111V51.555H72.3511V44.61ZM64.8361 52.215H73.6111V55.515H66.0811V57.555H64.8661V54.585H72.3811V53.22H64.8361V52.215ZM64.8661 57H74.0611V57.99H64.8661V57ZM79.9099 45.645C81.8749 45.645 83.2849 47.49 83.2849 50.37C83.2849 53.265 81.8749 55.11 79.9099 55.11C77.9299 55.11 76.5349 53.265 76.5349 50.37C76.5349 47.49 77.9299 45.645 79.9099 45.645ZM79.9099 46.77C78.6049 46.77 77.7199 48.18 77.7199 50.37C77.7199 52.575 78.6049 54.015 79.9099 54.015C81.2149 54.015 82.0999 52.575 82.0999 50.37C82.0999 48.18 81.2149 46.77 79.9099 46.77ZM86.2249 44.595H87.4549V58.185H86.2249V44.595ZM82.8799 49.77H86.7649V50.79H82.8799V49.77ZM93.5138 51.45H94.7588V54.69H93.5138V51.45ZM94.1288 45.48C96.2138 45.48 97.7138 46.785 97.7138 48.675C97.7138 50.565 96.2138 51.87 94.1288 51.87C92.0438 51.87 90.5438 50.565 90.5438 48.675C90.5438 46.785 92.0438 45.48 94.1288 45.48ZM94.1288 46.545C92.7488 46.545 91.7588 47.415 91.7588 48.675C91.7588 49.935 92.7488 50.805 94.1288 50.805C95.5088 50.805 96.4988 49.935 96.4988 48.675C96.4988 47.415 95.5088 46.545 94.1288 46.545ZM99.2588 44.61H100.504V58.17H99.2588V44.61ZM100.144 50.19H102.649V51.24H100.144V50.19ZM90.1088 55.245L89.9288 54.21C92.3738 54.195 95.6438 54.18 98.4038 53.805L98.5088 54.735C95.6438 55.215 92.4788 55.245 90.1088 55.245ZM115.071 48.195H118.236V49.215H115.071V48.195ZM113.811 45.39H115.101C115.101 48.84 113.181 51.345 108.966 52.635L108.456 51.645C112.206 50.52 113.811 48.495 113.811 45.87V45.39ZM109.071 45.39H114.546V46.395H109.071V45.39ZM113.796 47.85V48.72L108.606 49.125L108.396 48.105L113.796 47.85ZM118.011 44.61H119.256V52.425H118.011V44.61ZM110.511 53.16H119.256V57.99H110.511V53.16ZM118.041 54.15H111.741V56.985H118.041V54.15ZM125.09 52.695H126.335V58.17H125.09V52.695ZM129.77 52.695H131.015V58.17H129.77V52.695ZM123.05 45.36H133.01V46.38H123.05V45.36ZM123.11 50.025H132.95V51.045H123.11V50.025ZM125.105 46.155H126.35V50.625H125.105V46.155ZM129.725 46.155H130.955V50.625H129.725V46.155ZM121.895 52.59H134.18V53.61H121.895V52.59ZM145.639 44.595H146.869V58.185H145.639V44.595ZM142.819 49.71H145.819V50.745H142.819V49.71ZM136.324 53.895H137.359C139.909 53.895 141.514 53.85 143.419 53.49L143.539 54.51C141.589 54.855 139.939 54.93 137.359 54.93H136.324V53.895ZM136.324 45.84H142.594V46.875H137.554V54.255H136.324V45.84ZM137.239 49.65H142.009V50.655H137.239V49.65ZM23.055 62.61H24.255V76.17H23.055V62.61ZM20.76 68.04H23.37V69.075H20.76V68.04ZM19.98 62.91H21.15V75.48H19.98V62.91ZM13.23 71.79H14.115C16.095 71.79 17.445 71.715 19.02 71.385L19.14 72.42C17.52 72.765 16.155 72.825 14.115 72.825H13.23V71.79ZM13.23 64.26H18.27V65.28H14.46V72.255H13.23V64.26ZM26.5788 64.035H34.5888V65.055H26.5788V64.035ZM30.5838 65.745C32.5038 65.745 33.8238 66.705 33.8238 68.205C33.8238 69.69 32.5038 70.635 30.5838 70.635C28.6338 70.635 27.3288 69.69 27.3288 68.205C27.3288 66.705 28.6338 65.745 30.5838 65.745ZM30.5838 66.72C29.3388 66.72 28.5138 67.29 28.5138 68.205C28.5138 69.09 29.3388 69.675 30.5838 69.675C31.7988 69.675 32.6388 69.09 32.6388 68.205C32.6388 67.29 31.7988 66.72 30.5838 66.72ZM35.8188 62.61H37.0638V71.085H35.8188V62.61ZM36.7188 66.345H39.0738V67.38H36.7188V66.345ZM28.2588 71.82H37.0638V76.17H35.8188V72.84H28.2588V71.82ZM29.9538 62.535H31.1988V64.605H29.9538V62.535ZM41.6077 63.96H50.3377V64.995H41.6077V63.96ZM40.3477 73.245H52.6027V74.28H40.3477V73.245ZM43.3477 68.76H44.5777V73.62H43.3477V68.76ZM49.9327 63.96H51.1627V65.46C51.1627 67.185 51.1627 68.955 50.6977 71.49L49.4527 71.34C49.9327 68.94 49.9327 67.14 49.9327 65.46V63.96ZM46.6927 68.76H47.9227V73.62H46.6927V68.76ZM55.4632 73.6044C55.2005 73.6044 54.975 73.5103 54.7868 73.3221C54.5985 73.1339 54.5044 72.9084 54.5044 72.6456C54.5044 72.3828 54.5985 72.1573 54.7868 71.9691C54.975 71.7809 55.2005 71.6868 55.4632 71.6868C55.726 71.6868 55.9515 71.7809 56.1397 71.9691C56.3279 72.1573 56.4221 72.3828 56.4221 72.6456C56.4221 72.8196 56.3777 72.9794 56.2889 73.125C56.2037 73.2706 56.0882 73.3878 55.9426 73.4766C55.8006 73.5618 55.6408 73.6044 55.4632 73.6044ZM55.4632 68.0859C55.2005 68.0859 54.975 67.9918 54.7868 67.8036C54.5985 67.6154 54.5044 67.3899 54.5044 67.1271C54.5044 66.8643 54.5985 66.6388 54.7868 66.4506C54.975 66.2624 55.2005 66.1683 55.4632 66.1683C55.726 66.1683 55.9515 66.2624 56.1397 66.4506C56.3279 66.6388 56.4221 66.8643 56.4221 67.1271C56.4221 67.3011 56.3777 67.4609 56.2889 67.6065C56.2037 67.7521 56.0882 67.8693 55.9426 67.9581C55.8006 68.0433 55.6408 68.0859 55.4632 68.0859ZM63.0671 75V64.0909H64.3881V68.9489H70.2049V64.0909H71.5259V75H70.2049V70.1207H64.3881V75H63.0671ZM81.3297 64.0909H82.6507V71.3139C82.6507 72.0597 82.475 72.7255 82.1234 73.3114C81.7754 73.8938 81.2836 74.3537 80.6479 74.6911C80.0123 75.0249 79.2665 75.1918 78.4107 75.1918C77.5549 75.1918 76.8091 75.0249 76.1735 74.6911C75.5378 74.3537 75.0442 73.8938 74.6926 73.3114C74.3446 72.7255 74.1706 72.0597 74.1706 71.3139V64.0909H75.4917V71.2074C75.4917 71.7401 75.6088 72.2141 75.8432 72.6296C76.0776 73.0415 76.4114 73.3665 76.8446 73.6044C77.2814 73.8388 77.8034 73.956 78.4107 73.956C79.0179 73.956 79.54 73.8388 79.9767 73.6044C80.4135 73.3665 80.7473 73.0415 80.9782 72.6296C81.2125 72.2141 81.3297 71.7401 81.3297 71.2074V64.0909ZM85.2888 75V64.0909H91.83V65.2628H86.6098V68.9489H91.3399V70.1207H86.6098V75H85.2888ZM100.058 66.8182C99.9945 66.2784 99.7353 65.8594 99.2807 65.5611C98.8262 65.2628 98.2686 65.1136 97.6081 65.1136C97.1252 65.1136 96.7026 65.1918 96.3404 65.348C95.9817 65.5043 95.7012 65.7191 95.4988 65.9925C95.2999 66.266 95.2005 66.5767 95.2005 66.9247C95.2005 67.2159 95.2697 67.4663 95.4082 67.6758C95.5502 67.8817 95.7314 68.054 95.9515 68.1925C96.1717 68.3274 96.4025 68.4393 96.644 68.5281C96.8855 68.6133 97.1074 68.6825 97.3098 68.7358L98.4178 69.0341C98.7019 69.1087 99.0179 69.2116 99.3659 69.343C99.7175 69.4744 100.053 69.6538 100.373 69.881C100.696 70.1048 100.962 70.3924 101.172 70.744C101.381 71.0955 101.486 71.527 101.486 72.0384C101.486 72.6278 101.331 73.1605 101.023 73.6364C100.717 74.1122 100.27 74.4904 99.6802 74.771C99.0943 75.0515 98.3823 75.1918 97.5442 75.1918C96.763 75.1918 96.0865 75.0657 95.5147 74.8136C94.9466 74.5614 94.4991 74.2099 94.1724 73.7589C93.8493 73.3079 93.6664 72.7841 93.6238 72.1875H94.9874C95.0229 72.5994 95.1614 72.9403 95.4029 73.2102C95.6479 73.4766 95.9569 73.6754 96.3297 73.8068C96.7061 73.9347 97.111 73.9986 97.5442 73.9986C98.0485 73.9986 98.5012 73.9169 98.9025 73.7536C99.3038 73.5866 99.6216 73.3558 99.856 73.0611C100.09 72.7628 100.208 72.4148 100.208 72.017C100.208 71.6548 100.106 71.3601 99.9039 71.1328C99.7015 70.9055 99.4352 70.7209 99.1049 70.5788C98.7747 70.4368 98.4178 70.3125 98.0343 70.206L96.6919 69.8224C95.8397 69.5774 95.165 69.2276 94.6678 68.7731C94.1706 68.3185 93.9221 67.7237 93.9221 66.9886C93.9221 66.3778 94.0872 65.8452 94.4174 65.3906C94.7512 64.9325 95.1987 64.5774 95.7598 64.3253C96.3244 64.0696 96.9547 63.9418 97.6507 63.9418C98.3539 63.9418 98.9789 64.0678 99.5257 64.32C100.073 64.5685 100.506 64.9094 100.825 65.3427C101.149 65.7759 101.319 66.2678 101.337 66.8182H100.058ZM115.334 67.5C115.217 67.1413 115.062 66.82 114.871 66.5359C114.682 66.2482 114.457 66.0032 114.194 65.8008C113.935 65.5984 113.64 65.4439 113.31 65.3374C112.98 65.2308 112.617 65.1776 112.223 65.1776C111.577 65.1776 110.989 65.3445 110.46 65.6783C109.931 66.0121 109.51 66.5039 109.198 67.1538C108.885 67.8036 108.729 68.6009 108.729 69.5455C108.729 70.4901 108.887 71.2873 109.203 71.9371C109.519 72.587 109.947 73.0788 110.487 73.4126C111.027 73.7464 111.634 73.9134 112.309 73.9134C112.934 73.9134 113.484 73.7802 113.96 73.5138C114.439 73.244 114.812 72.864 115.078 72.3739C115.348 71.8803 115.483 71.2997 115.483 70.6321L115.888 70.7173H112.607V69.5455H116.762V70.7173C116.762 71.6158 116.57 72.397 116.186 73.0611C115.806 73.7251 115.281 74.2401 114.61 74.6058C113.942 74.968 113.175 75.1491 112.309 75.1491C111.343 75.1491 110.494 74.9219 109.762 74.4673C109.034 74.0128 108.466 73.3665 108.058 72.5284C107.653 71.6903 107.451 70.696 107.451 69.5455C107.451 68.6825 107.566 67.9066 107.797 67.2177C108.031 66.5252 108.361 65.9357 108.788 65.4492C109.214 64.9627 109.718 64.5898 110.3 64.3306C110.883 64.0714 111.524 63.9418 112.223 63.9418C112.799 63.9418 113.335 64.0288 113.832 64.2028C114.333 64.3732 114.778 64.6165 115.169 64.9325C115.563 65.245 115.892 65.6197 116.154 66.0565C116.417 66.4897 116.598 66.9709 116.698 67.5H115.334ZM120.111 64.0909V75H118.854V64.0909H120.111ZM125.737 75.1705C124.998 75.1705 124.35 74.9947 123.793 74.6431C123.239 74.2915 122.806 73.7997 122.493 73.1676C122.184 72.5355 122.03 71.7969 122.03 70.9517C122.03 70.0994 122.184 69.3555 122.493 68.7198C122.806 68.0842 123.239 67.5906 123.793 67.239C124.35 66.8874 124.998 66.7116 125.737 66.7116C126.476 66.7116 127.122 66.8874 127.676 67.239C128.234 67.5906 128.667 68.0842 128.976 68.7198C129.288 69.3555 129.445 70.0994 129.445 70.9517C129.445 71.7969 129.288 72.5355 128.976 73.1676C128.667 73.7997 128.234 74.2915 127.676 74.6431C127.122 74.9947 126.476 75.1705 125.737 75.1705ZM125.737 74.0412C126.298 74.0412 126.76 73.8974 127.122 73.6097C127.484 73.3221 127.752 72.9439 127.926 72.4751C128.1 72.0064 128.187 71.4986 128.187 70.9517C128.187 70.4048 128.1 69.8952 127.926 69.4229C127.752 68.9506 127.484 68.5689 127.122 68.2777C126.76 67.9865 126.298 67.8409 125.737 67.8409C125.176 67.8409 124.714 67.9865 124.352 68.2777C123.99 68.5689 123.722 68.9506 123.548 69.4229C123.374 69.8952 123.287 70.4048 123.287 70.9517C123.287 71.4986 123.374 72.0064 123.548 72.4751C123.722 72.9439 123.99 73.3221 124.352 73.6097C124.714 73.8974 125.176 74.0412 125.737 74.0412ZM131.534 75V64.0909H132.791V68.1179H132.898C132.99 67.9759 133.118 67.7947 133.281 67.5746C133.448 67.3509 133.686 67.152 133.995 66.978C134.307 66.8004 134.73 66.7116 135.263 66.7116C135.952 66.7116 136.559 66.8839 137.084 67.2283C137.61 67.5728 138.02 68.0611 138.315 68.6932C138.61 69.3253 138.757 70.071 138.757 70.9304C138.757 71.7969 138.61 72.5479 138.315 73.1836C138.02 73.8157 137.612 74.3058 137.09 74.6538C136.568 74.9982 135.966 75.1705 135.284 75.1705C134.758 75.1705 134.338 75.0835 134.021 74.9094C133.705 74.7319 133.462 74.5312 133.292 74.3075C133.121 74.0803 132.99 73.892 132.898 73.7429H132.748V75H131.534ZM132.77 70.9091C132.77 71.527 132.86 72.0721 133.041 72.5444C133.222 73.0131 133.487 73.3807 133.835 73.647C134.183 73.9098 134.609 74.0412 135.113 74.0412C135.639 74.0412 136.078 73.9027 136.429 73.6257C136.784 73.3452 137.051 72.9687 137.228 72.4964C137.409 72.0206 137.5 71.4915 137.5 70.9091C137.5 70.3338 137.411 69.8153 137.233 69.3537C137.059 68.8885 136.795 68.521 136.44 68.2511C136.088 67.9776 135.646 67.8409 135.113 67.8409C134.602 67.8409 134.172 67.9705 133.824 68.2298C133.476 68.4854 133.214 68.8441 133.036 69.3058C132.858 69.7638 132.77 70.2983 132.77 70.9091ZM143.088 75.1918C142.569 75.1918 142.099 75.0941 141.676 74.8988C141.253 74.6999 140.918 74.4141 140.669 74.0412C140.421 73.6648 140.296 73.2102 140.296 72.6776C140.296 72.2088 140.389 71.8288 140.573 71.5376C140.758 71.2429 141.005 71.0121 141.314 70.8452C141.623 70.6783 141.964 70.554 142.336 70.4723C142.713 70.3871 143.091 70.3196 143.471 70.2699C143.968 70.206 144.371 70.158 144.68 70.1261C144.993 70.0906 145.22 70.032 145.362 69.9503C145.508 69.8686 145.58 69.7266 145.58 69.5241V69.4815C145.58 68.956 145.437 68.5476 145.149 68.2564C144.865 67.9652 144.433 67.8196 143.855 67.8196C143.254 67.8196 142.784 67.951 142.443 68.2138C142.102 68.4766 141.862 68.7571 141.724 69.0554L140.531 68.6293C140.744 68.1321 141.028 67.745 141.383 67.468C141.742 67.1875 142.132 66.9922 142.555 66.8821C142.981 66.7685 143.4 66.7116 143.812 66.7116C144.075 66.7116 144.377 66.7436 144.718 66.8075C145.062 66.8679 145.394 66.994 145.714 67.1857C146.037 67.3775 146.305 67.6669 146.518 68.054C146.731 68.4411 146.838 68.9595 146.838 69.6094V75H145.58V73.892H145.517C145.431 74.0696 145.289 74.2596 145.09 74.462C144.892 74.6644 144.627 74.8366 144.297 74.9787C143.966 75.1207 143.563 75.1918 143.088 75.1918ZM143.279 74.0625C143.776 74.0625 144.195 73.9648 144.536 73.7695C144.881 73.5742 145.14 73.3221 145.314 73.0131C145.492 72.7042 145.58 72.3793 145.58 72.0384V70.8878C145.527 70.9517 145.41 71.0103 145.229 71.0636C145.051 71.1133 144.845 71.1577 144.611 71.1967C144.38 71.2322 144.155 71.2642 143.934 71.2926C143.718 71.3175 143.542 71.3388 143.407 71.3565C143.08 71.3991 142.775 71.4684 142.491 71.5643C142.21 71.6566 141.983 71.7969 141.809 71.9851C141.639 72.1697 141.553 72.4219 141.553 72.7415C141.553 73.1783 141.715 73.5085 142.038 73.7322C142.365 73.9524 142.779 74.0625 143.279 74.0625ZM150.389 64.0909V75H149.132V64.0909H150.389ZM165.859 67.5H164.538C164.46 67.12 164.323 66.7862 164.128 66.4986C163.936 66.2109 163.702 65.9695 163.425 65.7741C163.151 65.5753 162.848 65.4261 162.514 65.3267C162.18 65.2273 161.832 65.1776 161.47 65.1776C160.809 65.1776 160.211 65.3445 159.675 65.6783C159.142 66.0121 158.718 66.5039 158.402 67.1538C158.089 67.8036 157.933 68.6009 157.933 69.5455C157.933 70.4901 158.089 71.2873 158.402 71.9371C158.718 72.587 159.142 73.0788 159.675 73.4126C160.211 73.7464 160.809 73.9134 161.47 73.9134C161.832 73.9134 162.18 73.8636 162.514 73.7642C162.848 73.6648 163.151 73.5174 163.425 73.3221C163.702 73.1232 163.936 72.88 164.128 72.5923C164.323 72.3011 164.46 71.9673 164.538 71.5909H165.859C165.76 72.1484 165.579 72.6474 165.316 73.0877C165.053 73.5281 164.726 73.9027 164.336 74.2116C163.945 74.517 163.507 74.7496 163.02 74.9094C162.537 75.0692 162.02 75.1491 161.47 75.1491C160.54 75.1491 159.712 74.9219 158.988 74.4673C158.263 74.0128 157.693 73.3665 157.278 72.5284C156.862 71.6903 156.655 70.696 156.655 69.5455C156.655 68.3949 156.862 67.4006 157.278 66.5625C157.693 65.7244 158.263 65.0781 158.988 64.6236C159.712 64.169 160.54 63.9418 161.47 63.9418C162.02 63.9418 162.537 64.0217 163.02 64.1815C163.507 64.3413 163.945 64.5756 164.336 64.8846C164.726 65.19 165.053 65.5629 165.316 66.0032C165.579 66.44 165.76 66.9389 165.859 67.5ZM170.231 75.1918C169.713 75.1918 169.242 75.0941 168.82 74.8988C168.397 74.6999 168.061 74.4141 167.813 74.0412C167.564 73.6648 167.44 73.2102 167.44 72.6776C167.44 72.2088 167.532 71.8288 167.717 71.5376C167.902 71.2429 168.148 71.0121 168.457 70.8452C168.766 70.6783 169.107 70.554 169.48 70.4723C169.856 70.3871 170.235 70.3196 170.615 70.2699C171.112 70.206 171.515 70.158 171.824 70.1261C172.136 70.0906 172.364 70.032 172.506 69.9503C172.651 69.8686 172.724 69.7266 172.724 69.5241V69.4815C172.724 68.956 172.58 68.5476 172.293 68.2564C172.008 67.9652 171.577 67.8196 170.998 67.8196C170.398 67.8196 169.927 67.951 169.587 68.2138C169.246 68.4766 169.006 68.7571 168.867 69.0554L167.674 68.6293C167.887 68.1321 168.171 67.745 168.527 67.468C168.885 67.1875 169.276 66.9922 169.698 66.8821C170.125 66.7685 170.544 66.7116 170.956 66.7116C171.218 66.7116 171.52 66.7436 171.861 66.8075C172.206 66.8679 172.538 66.994 172.857 67.1857C173.18 67.3775 173.448 67.6669 173.661 68.054C173.875 68.4411 173.981 68.9595 173.981 69.6094V75H172.724V73.892H172.66C172.575 74.0696 172.433 74.2596 172.234 74.462C172.035 74.6644 171.771 74.8366 171.44 74.9787C171.11 75.1207 170.707 75.1918 170.231 75.1918ZM170.423 74.0625C170.92 74.0625 171.339 73.9648 171.68 73.7695C172.024 73.5742 172.284 73.3221 172.458 73.0131C172.635 72.7042 172.724 72.3793 172.724 72.0384V70.8878C172.671 70.9517 172.554 71.0103 172.372 71.0636C172.195 71.1133 171.989 71.1577 171.755 71.1967C171.524 71.2322 171.298 71.2642 171.078 71.2926C170.861 71.3175 170.686 71.3388 170.551 71.3565C170.224 71.3991 169.919 71.4684 169.634 71.5643C169.354 71.6566 169.127 71.7969 168.953 71.9851C168.782 72.1697 168.697 72.4219 168.697 72.7415C168.697 73.1783 168.859 73.5085 169.182 73.7322C169.508 73.9524 169.922 74.0625 170.423 74.0625ZM176.276 75V66.8182H177.49V68.0966H177.597C177.767 67.6598 178.042 67.3207 178.422 67.0792C178.802 66.8342 179.259 66.7116 179.791 66.7116C180.331 66.7116 180.78 66.8342 181.139 67.0792C181.501 67.3207 181.783 67.6598 181.986 68.0966H182.071C182.281 67.674 182.595 67.3384 183.014 67.0898C183.433 66.8377 183.935 66.7116 184.521 66.7116C185.253 66.7116 185.851 66.9407 186.316 67.3988C186.782 67.8533 187.014 68.5618 187.014 69.5241V75H185.757V69.5241C185.757 68.9205 185.592 68.489 185.262 68.2298C184.931 67.9705 184.543 67.8409 184.095 67.8409C183.52 67.8409 183.074 68.0149 182.758 68.3629C182.442 68.7074 182.284 69.1442 182.284 69.6733V75H181.006V69.3963C181.006 68.9311 180.855 68.5565 180.553 68.2724C180.251 67.9847 179.862 67.8409 179.386 67.8409C179.06 67.8409 178.754 67.9279 178.47 68.1019C178.19 68.2759 177.962 68.5174 177.788 68.8263C177.618 69.1317 177.533 69.4851 177.533 69.8864V75H176.276ZM189.313 78.0682V66.8182H190.527V68.1179H190.676C190.769 67.9759 190.896 67.7947 191.06 67.5746C191.227 67.3509 191.465 67.152 191.774 66.978C192.086 66.8004 192.509 66.7116 193.041 66.7116C193.73 66.7116 194.338 66.8839 194.863 67.2283C195.389 67.5728 195.799 68.0611 196.094 68.6932C196.388 69.3253 196.536 70.071 196.536 70.9304C196.536 71.7969 196.388 72.5479 196.094 73.1836C195.799 73.8157 195.39 74.3058 194.868 74.6538C194.346 74.9982 193.744 75.1705 193.063 75.1705C192.537 75.1705 192.116 75.0835 191.8 74.9094C191.484 74.7319 191.241 74.5312 191.07 74.3075C190.9 74.0803 190.769 73.892 190.676 73.7429H190.57V78.0682H189.313ZM190.548 70.9091C190.548 71.527 190.639 72.0721 190.82 72.5444C191.001 73.0131 191.266 73.3807 191.614 73.647C191.962 73.9098 192.388 74.0412 192.892 74.0412C193.418 74.0412 193.856 73.9027 194.208 73.6257C194.563 73.3452 194.829 72.9687 195.007 72.4964C195.188 72.0206 195.279 71.4915 195.279 70.9091C195.279 70.3338 195.19 69.8153 195.012 69.3537C194.838 68.8885 194.574 68.521 194.219 68.2511C193.867 67.9776 193.425 67.8409 192.892 67.8409C192.381 67.8409 191.951 67.9705 191.603 68.2298C191.255 68.4854 190.992 68.8441 190.815 69.3058C190.637 69.7638 190.548 70.2983 190.548 70.9091ZM203.61 71.6548V66.8182H204.867V75H203.61V73.6151H203.524C203.333 74.0305 203.034 74.3839 202.629 74.6751C202.225 74.9627 201.713 75.1065 201.095 75.1065C200.584 75.1065 200.129 74.9947 199.732 74.771C199.334 74.5437 199.021 74.2028 198.794 73.7482C198.567 73.2901 198.453 72.7131 198.453 72.017V66.8182H199.71V71.9318C199.71 72.5284 199.877 73.0043 200.211 73.3594C200.548 73.7145 200.978 73.892 201.5 73.892C201.813 73.892 202.131 73.8121 202.454 73.6523C202.78 73.4925 203.054 73.2475 203.274 72.9173C203.498 72.587 203.61 72.1662 203.61 71.6548ZM212.965 68.6506L211.835 68.9702C211.764 68.782 211.66 68.5991 211.521 68.4215C211.386 68.2404 211.201 68.0913 210.967 67.9741C210.733 67.8569 210.433 67.7983 210.067 67.7983C209.566 67.7983 209.149 67.9137 208.815 68.1445C208.485 68.3718 208.32 68.6612 208.32 69.0128C208.32 69.3253 208.433 69.5721 208.661 69.7532C208.888 69.9343 209.243 70.0852 209.726 70.206L210.94 70.5043C211.672 70.6818 212.217 70.9535 212.576 71.3192C212.934 71.6815 213.114 72.1484 213.114 72.7202C213.114 73.1889 212.979 73.608 212.709 73.9773C212.443 74.3466 212.07 74.6378 211.59 74.8509C211.111 75.0639 210.553 75.1705 209.918 75.1705C209.083 75.1705 208.392 74.9893 207.846 74.6271C207.299 74.2649 206.953 73.7358 206.807 73.0398L208 72.7415C208.114 73.1818 208.329 73.5121 208.645 73.7322C208.964 73.9524 209.381 74.0625 209.896 74.0625C210.482 74.0625 210.948 73.9382 211.292 73.6896C211.64 73.4375 211.814 73.1357 211.814 72.7841C211.814 72.5 211.715 72.2621 211.516 72.0703C211.317 71.875 211.011 71.7294 210.6 71.6335L209.236 71.3139C208.487 71.1364 207.936 70.8612 207.585 70.4883C207.237 70.1119 207.063 69.6413 207.063 69.0767C207.063 68.6151 207.192 68.2067 207.451 67.8516C207.714 67.4964 208.071 67.2177 208.522 67.0153C208.977 66.8129 209.492 66.7116 210.067 66.7116C210.877 66.7116 211.512 66.8892 211.974 67.2443C212.439 67.5994 212.769 68.0682 212.965 68.6506ZM219.203 75V74.0412L222.804 70.0994C223.227 69.6378 223.575 69.2365 223.848 68.8956C224.122 68.5511 224.324 68.228 224.456 67.9261C224.591 67.6207 224.658 67.3011 224.658 66.9673C224.658 66.5838 224.566 66.2518 224.381 65.9712C224.2 65.6907 223.951 65.4741 223.635 65.3214C223.319 65.1687 222.964 65.0923 222.57 65.0923C222.151 65.0923 221.785 65.1793 221.473 65.3533C221.164 65.5238 220.924 65.7635 220.754 66.0724C220.587 66.3814 220.503 66.7436 220.503 67.1591H219.246C219.246 66.5199 219.393 65.9588 219.688 65.4759C219.983 64.9929 220.384 64.6165 220.892 64.3466C221.403 64.0767 221.977 63.9418 222.613 63.9418C223.252 63.9418 223.818 64.0767 224.312 64.3466C224.805 64.6165 225.192 64.9805 225.473 65.4386C225.754 65.8967 225.894 66.4062 225.894 66.9673C225.894 67.3686 225.821 67.761 225.675 68.1445C225.533 68.5245 225.285 68.9489 224.93 69.4176C224.578 69.8828 224.09 70.451 223.465 71.1222L221.015 73.7429V73.8281H226.086V75H219.203ZM232.121 64.0909V75H230.8V65.4759H230.736L228.072 67.2443V65.902L230.8 64.0909H232.121ZM234.909 64.035H242.919V65.055H234.909V64.035ZM238.914 65.745C240.834 65.745 242.154 66.705 242.154 68.205C242.154 69.69 240.834 70.635 238.914 70.635C236.964 70.635 235.659 69.69 235.659 68.205C235.659 66.705 236.964 65.745 238.914 65.745ZM238.914 66.72C237.669 66.72 236.844 67.29 236.844 68.205C236.844 69.09 237.669 69.675 238.914 69.675C240.129 69.675 240.969 69.09 240.969 68.205C240.969 67.29 240.129 66.72 238.914 66.72ZM244.149 62.61H245.394V71.085H244.149V62.61ZM245.049 66.345H247.404V67.38H245.049V66.345ZM236.589 71.82H245.394V76.17H244.149V72.84H236.589V71.82ZM238.284 62.535H239.529V64.605H238.284V62.535ZM255.068 66.435H258.968V67.455H255.068V66.435ZM258.578 62.625H259.823V72.66H258.578V62.625ZM251.108 74.85H260.153V75.87H251.108V74.85ZM251.108 71.685H252.353V75.375H251.108V71.685ZM249.338 63.51H250.568V65.91H254.243V63.51H255.458V70.35H249.338V63.51ZM250.568 66.885V69.33H254.243V66.885H250.568ZM15.585 81.45H16.575V83.265C16.575 85.29 15.405 87.42 13.41 88.305L12.735 87.33C14.52 86.55 15.585 84.795 15.585 83.265V81.45ZM15.78 81.45H16.77V83.265C16.77 84.765 17.79 86.295 19.53 86.97L18.855 87.915C16.905 87.135 15.78 85.26 15.78 83.265V81.45ZM22.98 80.625H24.165V88.98H22.98V80.625ZM20.82 84.24H23.385V85.26H20.82V84.24ZM20.07 80.88H21.255V88.545H20.07V80.88ZM19.71 89.28C22.5 89.28 24.24 90.18 24.24 91.725C24.24 93.255 22.5 94.14 19.71 94.14C16.905 94.14 15.195 93.255 15.195 91.725C15.195 90.18 16.905 89.28 19.71 89.28ZM19.71 90.255C17.67 90.255 16.41 90.795 16.41 91.725C16.41 92.64 17.67 93.18 19.71 93.18C21.75 93.18 22.995 92.64 22.995 91.725C22.995 90.795 21.75 90.255 19.71 90.255ZM30.3438 81.105C32.3688 81.105 33.8538 82.335 33.8538 84.12C33.8538 85.89 32.3688 87.12 30.3438 87.12C28.3338 87.12 26.8488 85.89 26.8488 84.12C26.8488 82.335 28.3338 81.105 30.3438 81.105ZM30.3438 82.125C29.0388 82.125 28.0488 82.95 28.0488 84.12C28.0488 85.29 29.0388 86.1 30.3438 86.1C31.6638 86.1 32.6388 85.29 32.6388 84.12C32.6388 82.95 31.6638 82.125 30.3438 82.125ZM36.4038 80.61H37.6638V87.555H36.4038V80.61ZM28.8888 88.215H37.6638V91.515H30.1338V93.555H28.9188V90.585H36.4338V89.22H28.8888V88.215ZM28.9188 93H38.1138V93.99H28.9188V93ZM41.6644 91.6044C41.4016 91.6044 41.1761 91.5103 40.9879 91.3221C40.7997 91.1339 40.7056 90.9084 40.7056 90.6456C40.7056 90.3828 40.7997 90.1573 40.9879 89.9691C41.1761 89.7809 41.4016 89.6868 41.6644 89.6868C41.9272 89.6868 42.1527 89.7809 42.3409 89.9691C42.5291 90.1573 42.6232 90.3828 42.6232 90.6456C42.6232 90.8196 42.5788 90.9794 42.4901 91.125C42.4048 91.2706 42.2894 91.3878 42.1438 91.4766C42.0018 91.5618 41.842 91.6044 41.6644 91.6044ZM41.6644 86.0859C41.4016 86.0859 41.1761 85.9918 40.9879 85.8036C40.7997 85.6154 40.7056 85.3899 40.7056 85.1271C40.7056 84.8643 40.7997 84.6388 40.9879 84.4506C41.1761 84.2624 41.4016 84.1683 41.6644 84.1683C41.9272 84.1683 42.1527 84.2624 42.3409 84.4506C42.5291 84.6388 42.6232 84.8643 42.6232 85.1271C42.6232 85.3011 42.5788 85.4609 42.4901 85.6065C42.4048 85.7521 42.2894 85.8693 42.1438 85.9581C42.0018 86.0433 41.842 86.0859 41.6644 86.0859ZM49.0765 93V92.0412L52.6774 88.0994C53.1 87.6378 53.448 87.2365 53.7214 86.8956C53.9949 86.5511 54.1973 86.228 54.3287 85.9261C54.4636 85.6207 54.5311 85.3011 54.5311 84.9673C54.5311 84.5838 54.4387 84.2518 54.2541 83.9712C54.073 83.6907 53.8244 83.4741 53.5083 83.3214C53.1923 83.1687 52.8372 83.0923 52.443 83.0923C52.024 83.0923 51.6582 83.1793 51.3457 83.3533C51.0368 83.5238 50.7971 83.7635 50.6266 84.0724C50.4597 84.3814 50.3762 84.7436 50.3762 85.1591H49.1191C49.1191 84.5199 49.2665 83.9588 49.5613 83.4759C49.856 82.9929 50.2573 82.6165 50.7651 82.3466C51.2765 82.0767 51.85 81.9418 52.4856 81.9418C53.1248 81.9418 53.6912 82.0767 54.1848 82.3466C54.6784 82.6165 55.0655 82.9805 55.3461 83.4386C55.6266 83.8967 55.7669 84.4062 55.7669 84.9673C55.7669 85.3686 55.6941 85.761 55.5485 86.1445C55.4064 86.5245 55.1578 86.9489 54.8027 87.4176C54.4512 87.8828 53.9629 88.451 53.3379 89.1222L50.8876 91.7429V91.8281H55.9586V93H49.0765ZM61.7168 93.1491C60.9142 93.1491 60.2306 92.9308 59.666 92.494C59.1014 92.0536 58.6699 91.4162 58.3716 90.5817C58.0733 89.7436 57.9242 88.7315 57.9242 87.5455C57.9242 86.3665 58.0733 85.3597 58.3716 84.5252C58.6735 83.6871 59.1067 83.0479 59.6713 82.6076C60.2395 82.1637 60.9213 81.9418 61.7168 81.9418C62.5123 81.9418 63.1923 82.1637 63.7569 82.6076C64.3251 83.0479 64.7583 83.6871 65.0566 84.5252C65.3585 85.3597 65.5094 86.3665 65.5094 87.5455C65.5094 88.7315 65.3603 89.7436 65.062 90.5817C64.7637 91.4162 64.3322 92.0536 63.7676 92.494C63.2029 92.9308 62.5194 93.1491 61.7168 93.1491ZM61.7168 91.9773C62.5123 91.9773 63.1301 91.5937 63.5705 90.8267C64.0108 90.0597 64.231 88.9659 64.231 87.5455C64.231 86.6009 64.1298 85.7965 63.9274 85.1325C63.7285 84.4684 63.4409 83.9624 63.0645 83.6143C62.6916 83.2663 62.2424 83.0923 61.7168 83.0923C60.9284 83.0923 60.3123 83.4812 59.8684 84.2589C59.4245 85.033 59.2026 86.1286 59.2026 87.5455C59.2026 88.4901 59.302 89.2926 59.5009 89.9531C59.6998 90.6136 59.9856 91.1161 60.3585 91.4606C60.7349 91.805 61.1877 91.9773 61.7168 91.9773ZM71.0918 93.1491C70.2892 93.1491 69.6056 92.9308 69.041 92.494C68.4764 92.0536 68.0449 91.4162 67.7466 90.5817C67.4483 89.7436 67.2992 88.7315 67.2992 87.5455C67.2992 86.3665 67.4483 85.3597 67.7466 84.5252C68.0485 83.6871 68.4817 83.0479 69.0463 82.6076C69.6145 82.1637 70.2963 81.9418 71.0918 81.9418C71.8873 81.9418 72.5673 82.1637 73.1319 82.6076C73.7001 83.0479 74.1333 83.6871 74.4316 84.5252C74.7335 85.3597 74.8844 86.3665 74.8844 87.5455C74.8844 88.7315 74.7353 89.7436 74.437 90.5817C74.1387 91.4162 73.7072 92.0536 73.1426 92.494C72.5779 92.9308 71.8944 93.1491 71.0918 93.1491ZM71.0918 91.9773C71.8873 91.9773 72.5051 91.5937 72.9455 90.8267C73.3858 90.0597 73.606 88.9659 73.606 87.5455C73.606 86.6009 73.5048 85.7965 73.3024 85.1325C73.1035 84.4684 72.8159 83.9624 72.4395 83.6143C72.0666 83.2663 71.6174 83.0923 71.0918 83.0923C70.3034 83.0923 69.6873 83.4812 69.2434 84.2589C68.7995 85.033 68.5776 86.1286 68.5776 87.5455C68.5776 88.4901 68.677 89.2926 68.8759 89.9531C69.0748 90.6136 69.3606 91.1161 69.7335 91.4606C70.1099 91.805 70.5627 91.9773 71.0918 91.9773ZM76.9086 93V92.0412L80.5094 88.0994C80.932 87.6378 81.28 87.2365 81.5534 86.8956C81.8269 86.5511 82.0293 86.228 82.1607 85.9261C82.2956 85.6207 82.3631 85.3011 82.3631 84.9673C82.3631 84.5838 82.2708 84.2518 82.0861 83.9712C81.905 83.6907 81.6564 83.4741 81.3404 83.3214C81.0243 83.1687 80.6692 83.0923 80.275 83.0923C79.856 83.0923 79.4902 83.1793 79.1777 83.3533C78.8688 83.5238 78.6291 83.7635 78.4586 84.0724C78.2917 84.3814 78.2083 84.7436 78.2083 85.1591H76.9512C76.9512 84.5199 77.0985 83.9588 77.3933 83.4759C77.688 82.9929 78.0893 82.6165 78.5971 82.3466C79.1085 82.0767 79.682 81.9418 80.3176 81.9418C80.9569 81.9418 81.5233 82.0767 82.0169 82.3466C82.5105 82.6165 82.8975 82.9805 83.1781 83.4386C83.4586 83.8967 83.5989 84.4062 83.5989 84.9673C83.5989 85.3686 83.5261 85.761 83.3805 86.1445C83.2385 86.5245 82.9899 86.9489 82.6348 87.4176C82.2832 87.8828 81.7949 88.451 81.1699 89.1222L78.7196 91.7429V91.8281H83.7907V93H76.9086ZM95.5113 80.61H96.7563V90.66H95.5113V80.61ZM91.6863 82.38H95.9763V83.385H91.6863V82.38ZM88.0863 92.85H97.1163V93.87H88.0863V92.85ZM88.0863 89.79H89.3313V93.315H88.0863V89.79ZM86.3913 81.6H87.6363V87.99H86.3913V81.6ZM86.3913 87.6H87.4113C89.3463 87.6 91.1613 87.495 93.2763 87.12L93.3963 88.155C91.2213 88.545 89.4063 88.635 87.4113 88.635H86.3913V87.6ZM91.6863 84.96H95.9763V85.98H91.6863V84.96ZM107.843 82.0909V93H106.522V83.4759H106.458L103.795 85.2443V83.902L106.522 82.0909H107.843ZM114.816 82.0909V93H113.495V83.4759H113.431L110.768 85.2443V83.902L113.495 82.0909H114.816ZM121.204 86.22H122.449V88.635H121.204V86.22ZM127.429 80.61H128.674V88.59H127.429V80.61ZM117.679 86.64L117.529 85.71C120.139 85.71 123.454 85.695 126.349 85.365L126.424 86.175C123.454 86.61 120.214 86.64 117.679 86.64ZM119.584 89.085H128.674V91.905H120.829V93.435H119.614V91.08H127.444V89.985H119.584V89.085ZM119.614 93.12H129.124V94.02H119.614V93.12ZM124.729 87.06H127.819V87.87H124.729V87.06ZM121.909 80.865C123.919 80.865 125.239 81.645 125.239 82.905C125.239 84.165 123.919 84.945 121.909 84.945C119.884 84.945 118.564 84.165 118.564 82.905C118.564 81.645 119.884 80.865 121.909 80.865ZM121.909 81.735C120.574 81.735 119.719 82.185 119.719 82.905C119.719 83.625 120.574 84.075 121.909 84.075C123.214 84.075 124.069 83.625 124.069 82.905C124.069 82.185 123.214 81.735 121.909 81.735ZM135.971 93V92.0412L139.572 88.0994C139.994 87.6378 140.343 87.2365 140.616 86.8956C140.889 86.5511 141.092 86.228 141.223 85.9261C141.358 85.6207 141.426 85.3011 141.426 84.9673C141.426 84.5838 141.333 84.2518 141.149 83.9712C140.968 83.6907 140.719 83.4741 140.403 83.3214C140.087 83.1687 139.732 83.0923 139.338 83.0923C138.919 83.0923 138.553 83.1793 138.24 83.3533C137.931 83.5238 137.692 83.7635 137.521 84.0724C137.354 84.3814 137.271 84.7436 137.271 85.1591H136.014C136.014 84.5199 136.161 83.9588 136.456 83.4759C136.751 82.9929 137.152 82.6165 137.66 82.3466C138.171 82.0767 138.744 81.9418 139.38 81.9418C140.019 81.9418 140.586 82.0767 141.079 82.3466C141.573 82.6165 141.96 82.9805 142.241 83.4386C142.521 83.8967 142.661 84.4062 142.661 84.9673C142.661 85.3686 142.589 85.761 142.443 86.1445C142.301 86.5245 142.052 86.9489 141.697 87.4176C141.346 87.8828 140.857 88.451 140.232 89.1222L137.782 91.7429V91.8281H142.853V93H135.971ZM148.469 81.105C150.494 81.105 151.979 82.335 151.979 84.12C151.979 85.89 150.494 87.12 148.469 87.12C146.459 87.12 144.974 85.89 144.974 84.12C144.974 82.335 146.459 81.105 148.469 81.105ZM148.469 82.125C147.164 82.125 146.174 82.95 146.174 84.12C146.174 85.29 147.164 86.1 148.469 86.1C149.789 86.1 150.764 85.29 150.764 84.12C150.764 82.95 149.789 82.125 148.469 82.125ZM154.529 80.61H155.789V87.555H154.529V80.61ZM147.014 88.215H155.789V91.515H148.259V93.555H147.044V90.585H154.559V89.22H147.014V88.215ZM147.044 93H156.239V93.99H147.044V93ZM13.321 100.091H14.8977L18.6051 109.146H18.733L22.4403 100.091H24.017V111H22.7812V102.712H22.6747L19.2656 111H18.0724L14.6634 102.712H14.5568V111H13.321V100.091ZM26.6657 111V100.091H30.4797C31.2396 100.091 31.8664 100.222 32.36 100.485C32.8536 100.744 33.2211 101.094 33.4626 101.534C33.7041 101.971 33.8248 102.456 33.8248 102.989C33.8248 103.457 33.7414 103.844 33.5745 104.15C33.4111 104.455 33.1945 104.697 32.9246 104.874C32.6583 105.052 32.3689 105.183 32.0564 105.268V105.375C32.3902 105.396 32.7258 105.513 33.0631 105.727C33.4005 105.94 33.6828 106.245 33.9101 106.643C34.1373 107.04 34.251 107.527 34.251 108.102C34.251 108.649 34.1267 109.141 33.8781 109.578C33.6295 110.015 33.2371 110.361 32.7009 110.616C32.1647 110.872 31.4669 111 30.6075 111H26.6657ZM27.9868 109.828H30.6075C31.4704 109.828 32.083 109.661 32.4452 109.327C32.811 108.99 32.9939 108.582 32.9939 108.102C32.9939 107.733 32.8998 107.392 32.7116 107.08C32.5233 106.763 32.2552 106.511 31.9072 106.323C31.5592 106.131 31.1473 106.036 30.6714 106.036H27.9868V109.828ZM27.9868 104.885H30.4371C30.8348 104.885 31.1934 104.807 31.5131 104.651C31.8362 104.494 32.0919 104.274 32.2801 103.99C32.4719 103.706 32.5677 103.372 32.5677 102.989C32.5677 102.509 32.4008 102.103 32.067 101.769C31.7332 101.431 31.2041 101.263 30.4797 101.263H27.9868V104.885ZM35.825 101.263V100.091H44.0068V101.263H40.5764V111H39.2554V101.263H35.825ZM47.3667 100.091V111H46.0456V100.091H47.3667ZM50.7611 109.604C50.4983 109.604 50.2728 109.51 50.0846 109.322C49.8964 109.134 49.8023 108.908 49.8023 108.646C49.8023 108.383 49.8964 108.157 50.0846 107.969C50.2728 107.781 50.4983 107.687 50.7611 107.687C51.0239 107.687 51.2494 107.781 51.4376 107.969C51.6258 108.157 51.7199 108.383 51.7199 108.646C51.7199 108.82 51.6755 108.979 51.5867 109.125C51.5015 109.271 51.3861 109.388 51.2405 109.477C51.0985 109.562 50.9387 109.604 50.7611 109.604ZM50.7611 104.086C50.4983 104.086 50.2728 103.992 50.0846 103.804C49.8964 103.615 49.8023 103.39 49.8023 103.127C49.8023 102.864 49.8964 102.639 50.0846 102.451C50.2728 102.262 50.4983 102.168 50.7611 102.168C51.0239 102.168 51.2494 102.262 51.4376 102.451C51.6258 102.639 51.7199 102.864 51.7199 103.127C51.7199 103.301 51.6755 103.461 51.5867 103.607C51.5015 103.752 51.3861 103.869 51.2405 103.958C51.0985 104.043 50.9387 104.086 50.7611 104.086ZM59.686 100.091V111H58.365V100.091H59.686ZM70.9853 100.091V111H69.7069L63.7623 102.435H63.6557V111H62.3347V100.091H63.6131L69.579 108.678H69.6855V100.091H70.9853ZM73.6286 111V100.091H80.1698V101.263H74.9497V104.949H79.6798V106.121H74.9497V111H73.6286ZM82.4324 111V100.091H86.1184C86.9743 100.091 87.6738 100.245 88.2172 100.554C88.764 100.86 89.1689 101.273 89.4316 101.795C89.6944 102.317 89.8258 102.9 89.8258 103.543C89.8258 104.185 89.6944 104.77 89.4316 105.295C89.1724 105.821 88.7711 106.24 88.2278 106.552C87.6845 106.861 86.9885 107.016 86.1397 107.016H83.4977V105.844H86.0971C86.6831 105.844 87.1536 105.743 87.5087 105.54C87.8638 105.338 88.1213 105.064 88.2811 104.72C88.4444 104.372 88.5261 103.979 88.5261 103.543C88.5261 103.106 88.4444 102.715 88.2811 102.371C88.1213 102.026 87.862 101.756 87.5034 101.561C87.1447 101.362 86.6689 101.263 86.0758 101.263H83.7534V111H82.4324Z" fill="black"/>
<path d="M221 0H284.116L283.74 0.916667L284.492 1.83333V3.05556L285.243 3.66667L284.867 5.19444L285.994 5.80556L285.619 7.02778L287.122 7.94444V9.16667L289 11H223.63L223.254 9.16667V7.94444L222.503 6.72222L222.878 5.19444L221.751 3.97222L222.127 3.05556L221.376 1.83333L222.127 0.916667L221 0Z" fill="#DD6D6D"/>
<g filter="url(#filter0_b_39_135)">
<path d="M224.5 1L224.588 2.37865L225.927 2.03647L224.643 2.54635L225.382 3.71353L224.5 2.65L223.618 3.71353L224.357 2.54635L223.073 2.03647L224.412 2.37865L224.5 1Z" fill="white"/>
</g>
<g filter="url(#filter1_b_39_135)">
<path d="M226.5 5L226.588 6.37865L227.927 6.03647L226.643 6.54635L227.382 7.71353L226.5 6.65L225.618 7.71353L226.357 6.54635L225.073 6.03647L226.412 6.37865L226.5 5Z" fill="white"/>
</g>
<g filter="url(#filter2_b_39_135)">
<path d="M238.5 1L238.588 2.37865L239.927 2.03647L238.643 2.54635L239.382 3.71353L238.5 2.65L237.618 3.71353L238.357 2.54635L237.073 2.03647L238.412 2.37865L238.5 1Z" fill="white"/>
</g>
<g filter="url(#filter3_b_39_135)">
<path d="M237.5 6L237.588 7.37865L238.927 7.03647L237.643 7.54635L238.382 8.71353L237.5 7.65L236.618 8.71353L237.357 7.54635L236.073 7.03647L237.412 7.37865L237.5 6Z" fill="white"/>
</g>
<g filter="url(#filter4_b_39_135)">
<path d="M232 2L232.235 5.67639L235.804 4.76393L232.38 6.12361L234.351 9.23607L232 6.4L229.649 9.23607L231.62 6.12361L228.196 4.76393L231.765 5.67639L232 2Z" fill="white"/>
</g>
<g filter="url(#filter5_b_39_135)">
<path d="M244 2L244.235 5.67639L247.804 4.76393L244.38 6.12361L246.351 9.23607L244 6.4L241.649 9.23607L243.62 6.12361L240.196 4.76393L243.765 5.67639L244 2Z" fill="white"/>
</g>
<g filter="url(#filter6_b_39_135)">
<path d="M249.5 1L249.588 2.37865L250.927 2.03647L249.643 2.54635L250.382 3.71353L249.5 2.65L248.618 3.71353L249.357 2.54635L248.073 2.03647L249.412 2.37865L249.5 1Z" fill="white"/>
</g>
<g filter="url(#filter7_b_39_135)">
<path d="M251.5 5L251.588 6.37865L252.927 6.03647L251.643 6.54635L252.382 7.71353L251.5 6.65L250.618 7.71353L251.357 6.54635L250.073 6.03647L251.412 6.37865L251.5 5Z" fill="white"/>
</g>
<g filter="url(#filter8_b_39_135)">
<path d="M263.5 1L263.588 2.37865L264.927 2.03647L263.643 2.54635L264.382 3.71353L263.5 2.65L262.618 3.71353L263.357 2.54635L262.073 2.03647L263.412 2.37865L263.5 1Z" fill="white"/>
</g>
<g filter="url(#filter9_b_39_135)">
<path d="M262.5 6L262.588 7.37865L263.927 7.03647L262.643 7.54635L263.382 8.71353L262.5 7.65L261.618 8.71353L262.357 7.54635L261.073 7.03647L262.412 7.37865L262.5 6Z" fill="white"/>
</g>
<g filter="url(#filter10_b_39_135)">
<path d="M257 2L257.235 5.67639L260.804 4.76393L257.38 6.12361L259.351 9.23607L257 6.4L254.649 9.23607L256.62 6.12361L253.196 4.76393L256.765 5.67639L257 2Z" fill="white"/>
</g>
<g filter="url(#filter11_b_39_135)">
<path d="M278.5 1L278.588 2.37865L279.927 2.03647L278.643 2.54635L279.382 3.71353L278.5 2.65L277.618 3.71353L278.357 2.54635L277.073 2.03647L278.412 2.37865L278.5 1Z" fill="white"/>
</g>
<g filter="url(#filter12_b_39_135)">
<path d="M280.5 6L280.588 7.37865L281.927 7.03647L280.643 7.54635L281.382 8.71353L280.5 7.65L279.618 8.71353L280.357 7.54635L279.073 7.03647L280.412 7.37865L280.5 6Z" fill="white"/>
</g>
<g filter="url(#filter13_b_39_135)">
<path d="M271 1L271.235 4.67639L274.804 3.76393L271.38 5.12361L273.351 8.23607L271 5.4L268.649 8.23607L270.62 5.12361L267.196 3.76393L270.765 4.67639L271 1Z" fill="white"/>
</g>
<defs>
<filter id="filter0_b_39_135" x="219.073" y="-3" width="10.853" height="10.7135" filterUnits="userSpaceOnUse" color-interpolation-filters="sRGB">
<feFlood flood-opacity="0" result="BackgroundImageFix"/>
<feGaussianBlur in="BackgroundImageFix" stdDeviation="2"/>
<feComposite in2="SourceAlpha" operator="in" result="effect1_backgroundBlur_39_135"/>
<feBlend mode="normal" in="SourceGraphic" in2="effect1_backgroundBlur_39_135" result="shape"/>
</filter>
<filter id="filter1_b_39_135" x="221.073" y="1" width="10.853" height="10.7135" filterUnits="userSpaceOnUse" color-interpolation-filters="sRGB">
<feFlood flood-opacity="0" result="BackgroundImageFix"/>
<feGaussianBlur in="BackgroundImageFix" stdDeviation="2"/>
<feComposite in2="SourceAlpha" operator="in" result="effect1_backgroundBlur_39_135"/>
<feBlend mode="normal" in="SourceGraphic" in2="effect1_backgroundBlur_39_135" result="shape"/>
</filter>
<filter id="filter2_b_39_135" x="233.073" y="-3" width="10.853" height="10.7135" filterUnits="userSpaceOnUse" color-interpolation-filters="sRGB">
<feFlood flood-opacity="0" result="BackgroundImageFix"/>
<feGaussianBlur in="BackgroundImageFix" stdDeviation="2"/>
<feComposite in2="SourceAlpha" operator="in" result="effect1_backgroundBlur_39_135"/>
<feBlend mode="normal" in="SourceGraphic" in2="effect1_backgroundBlur_39_135" result="shape"/>
</filter>
<filter id="filter3_b_39_135" x="232.073" y="2" width="10.853" height="10.7135" filterUnits="userSpaceOnUse" color-interpolation-filters="sRGB">
<feFlood flood-opacity="0" result="BackgroundImageFix"/>
<feGaussianBlur in="BackgroundImageFix" stdDeviation="2"/>
<feComposite in2="SourceAlpha" operator="in" result="effect1_backgroundBlur_39_135"/>
<feBlend mode="normal" in="SourceGraphic" in2="effect1_backgroundBlur_39_135" result="shape"/>
</filter>
<filter id="filter4_b_39_135" x="224.196" y="-2" width="15.6084" height="15.2361" filterUnits="userSpaceOnUse" color-interpolation-filters="sRGB">
<feFlood flood-opacity="0" result="BackgroundImageFix"/>
<feGaussianBlur in="BackgroundImageFix" stdDeviation="2"/>
<feComposite in2="SourceAlpha" operator="in" result="effect1_backgroundBlur_39_135"/>
<feBlend mode="normal" in="SourceGraphic" in2="effect1_backgroundBlur_39_135" result="shape"/>
</filter>
<filter id="filter5_b_39_135" x="236.196" y="-2" width="15.6084" height="15.2361" filterUnits="userSpaceOnUse" color-interpolation-filters="sRGB">
<feFlood flood-opacity="0" result="BackgroundImageFix"/>
<feGaussianBlur in="BackgroundImageFix" stdDeviation="2"/>
<feComposite in2="SourceAlpha" operator="in" result="effect1_backgroundBlur_39_135"/>
<feBlend mode="normal" in="SourceGraphic" in2="effect1_backgroundBlur_39_135" result="shape"/>
</filter>
<filter id="filter6_b_39_135" x="244.073" y="-3" width="10.853" height="10.7135" filterUnits="userSpaceOnUse" color-interpolation-filters="sRGB">
<feFlood flood-opacity="0" result="BackgroundImageFix"/>
<feGaussianBlur in="BackgroundImageFix" stdDeviation="2"/>
<feComposite in2="SourceAlpha" operator="in" result="effect1_backgroundBlur_39_135"/>
<feBlend mode="normal" in="SourceGraphic" in2="effect1_backgroundBlur_39_135" result="shape"/>
</filter>
<filter id="filter7_b_39_135" x="246.073" y="1" width="10.853" height="10.7135" filterUnits="userSpaceOnUse" color-interpolation-filters="sRGB">
<feFlood flood-opacity="0" result="BackgroundImageFix"/>
<feGaussianBlur in="BackgroundImageFix" stdDeviation="2"/>
<feComposite in2="SourceAlpha" operator="in" result="effect1_backgroundBlur_39_135"/>
<feBlend mode="normal" in="SourceGraphic" in2="effect1_backgroundBlur_39_135" result="shape"/>
</filter>
<filter id="filter8_b_39_135" x="258.073" y="-3" width="10.853" height="10.7135" filterUnits="userSpaceOnUse" color-interpolation-filters="sRGB">
<feFlood flood-opacity="0" result="BackgroundImageFix"/>
<feGaussianBlur in="BackgroundImageFix" stdDeviation="2"/>
<feComposite in2="SourceAlpha" operator="in" result="effect1_backgroundBlur_39_135"/>
<feBlend mode="normal" in="SourceGraphic" in2="effect1_backgroundBlur_39_135" result="shape"/>
</filter>
<filter id="filter9_b_39_135" x="257.073" y="2" width="10.853" height="10.7135" filterUnits="userSpaceOnUse" color-interpolation-filters="sRGB">
<feFlood flood-opacity="0" result="BackgroundImageFix"/>
<feGaussianBlur in="BackgroundImageFix" stdDeviation="2"/>
<feComposite in2="SourceAlpha" operator="in" result="effect1_backgroundBlur_39_135"/>
<feBlend mode="normal" in="SourceGraphic" in2="effect1_backgroundBlur_39_135" result="shape"/>
</filter>
<filter id="filter10_b_39_135" x="249.196" y="-2" width="15.6084" height="15.2361" filterUnits="userSpaceOnUse" color-interpolation-filters="sRGB">
<feFlood flood-opacity="0" result="BackgroundImageFix"/>
<feGaussianBlur in="BackgroundImageFix" stdDeviation="2"/>
<feComposite in2="SourceAlpha" operator="in" result="effect1_backgroundBlur_39_135"/>
<feBlend mode="normal" in="SourceGraphic" in2="effect1_backgroundBlur_39_135" result="shape"/>
</filter>
<filter id="filter11_b_39_135" x="273.073" y="-3" width="10.853" height="10.7135" filterUnits="userSpaceOnUse" color-interpolation-filters="sRGB">
<feFlood flood-opacity="0" result="BackgroundImageFix"/>
<feGaussianBlur in="BackgroundImageFix" stdDeviation="2"/>
<feComposite in2="SourceAlpha" operator="in" result="effect1_backgroundBlur_39_135"/>
<feBlend mode="normal" in="SourceGraphic" in2="effect1_backgroundBlur_39_135" result="shape"/>
</filter>
<filter id="filter12_b_39_135" x="275.073" y="2" width="10.853" height="10.7135" filterUnits="userSpaceOnUse" color-interpolation-filters="sRGB">
<feFlood flood-opacity="0" result="BackgroundImageFix"/>
<feGaussianBlur in="BackgroundImageFix" stdDeviation="2"/>
<feComposite in2="SourceAlpha" operator="in" result="effect1_backgroundBlur_39_135"/>
<feBlend mode="normal" in="SourceGraphic" in2="effect1_backgroundBlur_39_135" result="shape"/>
</filter>
<filter id="filter13_b_39_135" x="263.196" y="-3" width="15.6084" height="15.2361" filterUnits="userSpaceOnUse" color-interpolation-filters="sRGB">
<feFlood flood-opacity="0" result="BackgroundImageFix"/>
<feGaussianBlur in="BackgroundImageFix" stdDeviation="2"/>
<feComposite in2="SourceAlpha" operator="in" result="effect1_backgroundBlur_39_135"/>
<feBlend mode="normal" in="SourceGraphic" in2="effect1_backgroundBlur_39_135" result="shape"/>
</filter>
</defs>
</svg>
