<svg width="67" height="35" viewBox="0 0 67 35" fill="none" xmlns="http://www.w3.org/2000/svg">
<rect x="32" width="35" height="35" rx="5" fill="#B2D1E7"/>
<mask id="path-2-inside-1_51_151" fill="white">
<path d="M0 7H45.5C51.299 7 56 11.701 56 17.5V17.5C56 23.299 51.299 28 45.5 28H0V7Z"/>
</mask>
<path d="M0 2H45.5C54.0604 2 61 8.93959 61 17.5H51C51 14.4624 48.5376 12 45.5 12H0V2ZM61 17.5C61 26.0604 54.0604 33 45.5 33H0V23H45.5C48.5376 23 51 20.5376 51 17.5H61ZM0 28V7V28ZM45.5 2C54.0604 2 61 8.93959 61 17.5C61 26.0604 54.0604 33 45.5 33V23C48.5376 23 51 20.5376 51 17.5C51 14.4624 48.5376 12 45.5 12V2Z" fill="#818181" mask="url(#path-2-inside-1_51_151)"/>
</svg>
