<svg width="285" height="533" viewBox="0 0 285 533" fill="none" xmlns="http://www.w3.org/2000/svg">
<path d="M0 44H285V533H49L23.5 509.5L0 487V44Z" fill="#FBD84E"/>
<path d="M0 487H49V533L25.5 512L0 487Z" fill="#DABC46"/>
<path d="M122 5.29626L126.669 6.68513L130.582 3.78304L133.106 5.55021L138.091 2.45898L144.906 3.46954L152.037 -4.88098e-06L162.629 60.0733L156.887 58.8736L154.047 61.5865L152.596 59.6302L150.829 62.1539L147.233 60.5759L143.32 63.478L137.578 62.2783L132.593 65.3695L122 5.29626Z" fill="#DF80B1"/>
<path d="M126.037 15.6454L131.338 8.07405" stroke="#F698C9" stroke-linecap="round"/>
<path d="M127.172 22.0819L137.775 6.93923" stroke="#F698C9" stroke-linecap="round"/>
<path d="M128.307 28.5183L144.211 5.8043" stroke="#F698C9" stroke-linecap="round"/>
<path d="M129.442 34.9547L150.648 4.66936" stroke="#F698C9" stroke-linecap="round"/>
<path d="M130.577 41.3912L151.783 11.1059" stroke="#F698C9" stroke-linecap="round"/>
<path d="M131.712 47.8276L152.918 17.5423" stroke="#F698C9" stroke-linecap="round"/>
<path d="M132.847 54.2642L154.053 23.9788" stroke="#F698C9" stroke-linecap="round"/>
<path d="M133.981 60.7006L155.187 30.4152" stroke="#F698C9" stroke-linecap="round"/>
<path d="M140.418 59.5657L156.322 36.8517" stroke="#F698C9" stroke-linecap="round"/>
<path d="M146.854 58.4308L157.457 43.2881" stroke="#F698C9" stroke-linecap="round"/>
<path d="M153.291 57.2958L158.592 49.7244" stroke="#F698C9" stroke-linecap="round"/>
</svg>
